HIERARCHY
ROOT joint_0
{
	OFFSET 0.000000 0.000000 0.000000
	CHANNELS 6 Xposition Yposition Zposition Zrotation Yrotation Xrotation 
	JOINT joint_1
	{
		OFFSET 7.745728 2.152245 124.869995
		CHANNELS 3 Zrotation Yrotation Xrotation
		JOINT joint_2
		{
			OFFSET -6.359406 2.617477 113.975952
			CHANNELS 3 Zrotation Yrotation Xrotation
			JOINT joint_3
			{
				OFFSET -8.187927 3.340103 113.713013
				CHANNELS 3 Zrotation Yrotation Xrotation
				JOINT joint_4
				{
					OFFSET 2.859222 5.755905 159.680054
					CHANNELS 3 Zrotation Yrotation Xrotation
					JOINT joint_5
					{
						OFFSET 22.724274 2.598469 88.906982
						CHANNELS 3 Zrotation Yrotation Xrotation
						End Site
						{
							OFFSET 0.000000 0.000000 0.000000
						}
					}
				}
				JOINT joint_6
				{
					OFFSET 2.312134 -31.513222 90.723022
					CHANNELS 3 Zrotation Yrotation Xrotation
					JOINT joint_7
					{
						OFFSET -0.486389 -150.827950 -17.660034
						CHANNELS 3 Zrotation Yrotation Xrotation
						JOINT joint_8
						{
							OFFSET 15.633850 -16.961029 -297.395020
							CHANNELS 3 Zrotation Yrotation Xrotation
							JOINT joint_9
							{
								OFFSET 5.600098 1.609863 -262.782959
								CHANNELS 3 Zrotation Yrotation Xrotation
								End Site
								{
									OFFSET 0.000000 0.000000 0.000000
								}
							}
						}
					}
				}
				JOINT joint_10
				{
					OFFSET 1.012756 37.963039 88.243042
					CHANNELS 3 Zrotation Yrotation Xrotation
					JOINT joint_11
					{
						OFFSET -2.397430 150.471996 -20.492065
						CHANNELS 3 Zrotation Yrotation Xrotation
						JOINT joint_12
						{
							OFFSET -10.575745 12.779427 -297.765015
							CHANNELS 3 Zrotation Yrotation Xrotation
							JOINT joint_13
							{
								OFFSET 196.311081 2.689713 -176.286011
								CHANNELS 3 Zrotation Yrotation Xrotation
								End Site
								{
									OFFSET 0.000000 0.000000 0.000000
								}
							}
						}
					}
				}
			}
		}
	}
	JOINT joint_14
	{
		OFFSET 1.244965 -96.891136 -118.152039
		CHANNELS 3 Zrotation Yrotation Xrotation
		JOINT joint_15
		{
			OFFSET -2.982971 -16.401871 -443.439026
			CHANNELS 3 Zrotation Yrotation Xrotation
			JOINT joint_16
			{
				OFFSET -42.052063 -15.386002 -460.966980
				CHANNELS 3 Zrotation Yrotation Xrotation
				JOINT joint_17
				{
					OFFSET 177.916595 102.818184 -88.655001
					CHANNELS 3 Zrotation Yrotation Xrotation
					End Site
					{
						OFFSET 0.000000 0.000000 0.000000
					}
				}
			}
		}
	}
	JOINT joint_18
	{
		OFFSET 1.788635 96.476997 -118.463074
		CHANNELS 3 Zrotation Yrotation Xrotation
		JOINT joint_19
		{
			OFFSET -9.555542 8.093691 -443.574951
			CHANNELS 3 Zrotation Yrotation Xrotation
			JOINT joint_20
			{
				OFFSET -48.427551 9.415819 -460.500023
				CHANNELS 3 Zrotation Yrotation Xrotation
				JOINT joint_21
				{
					OFFSET 204.978119 20.223980 -87.523996
					CHANNELS 3 Zrotation Yrotation Xrotation
					End Site
					{
						OFFSET 0.000000 0.000000 0.000000
					}
				}
			}
		}
	}
}
MOTION
Frames: 9
Frame Time: 0.016667
1476.088501 -69.407227 1142.965942 2.404010 0.258367 1.014291 -0.414734 1.012423 -0.225656 -0.377615 -0.167268 0.058588 -0.393996 0.193457 -0.019345 -0.031258 1.534670 -0.082550 0.000000 0.000000 0.000000 3.116840 -1.161840 3.033789 -0.126732 -0.753947 -4.354513 0.003953 1.214894 0.138124 0.000000 0.000000 0.000000 -1.046685 -2.118357 -0.653334 -1.639954 -2.092036 0.762753 0.453904 49.326426 -1.501025 0.000000 0.000000 0.000000 -9.964084 -0.429985 -1.775613 -10.008109 0.802005 -2.156627 -9.821582 -0.606457 -4.536190 0.000000 0.000000 0.000000 -2.966294 -1.407922 1.009884 -2.831048 2.820465 -1.442307 -2.837727 2.848688 -1.491658 0.000000 0.000000 0.000000 
1476.045898 -69.361244 1142.974976 2.402759 0.252400 1.012743 -0.414964 1.032420 -0.217461 -0.377978 -0.169427 0.056862 -0.394274 0.195596 -0.018140 -0.030192 1.542808 -0.087881 0.000000 0.000000 0.000000 3.111018 -1.159709 3.027196 -0.127340 -0.752385 -4.363719 0.004064 1.217118 0.143000 0.000000 0.000000 0.000000 -1.047892 -2.124637 -0.667405 -1.633821 -2.097606 0.753449 0.458673 49.336141 -1.490788 0.000000 0.000000 0.000000 -9.960003 -0.428524 -1.775253 -10.004176 0.808733 -2.164490 -9.818770 -0.613384 -4.530601 0.000000 0.000000 0.000000 -2.966594 -1.413694 1.014378 -2.830517 2.841749 -1.453276 -2.839619 2.824767 -1.490083 0.000000 0.000000 0.000000 
1476.004028 -69.313126 1142.988037 2.400288 0.244405 1.011769 -0.413169 1.052259 -0.209598 -0.376310 -0.170635 0.055393 -0.392512 0.197168 -0.017165 -0.029165 1.552464 -0.093286 0.000000 0.000000 0.000000 3.098005 -1.157918 3.022657 -0.127470 -0.752061 -4.372638 0.004099 1.224382 0.144392 0.000000 0.000000 0.000000 -1.056581 -2.132061 -0.680777 -1.624068 -2.103132 0.738635 0.466546 49.351539 -1.475758 0.000000 0.000000 0.000000 -9.954160 -0.426850 -1.776918 -9.998651 0.819346 -2.172546 -9.814337 -0.621565 -4.523462 0.000000 0.000000 0.000000 -2.967579 -1.414709 1.018077 -2.830866 2.859591 -1.463633 -2.842350 2.796123 -1.488400 0.000000 0.000000 0.000000 
1475.983887 -69.274765 1143.037964 2.397098 0.235937 1.013246 -0.408745 1.067302 -0.207393 -0.371836 -0.170497 0.053777 -0.387835 0.195405 -0.016747 -0.029351 1.564981 -0.094356 0.000000 0.000000 0.000000 3.078923 -1.152268 3.020159 -0.127445 -0.748606 -4.377514 0.004074 1.231902 0.143020 0.000000 0.000000 0.000000 -1.074769 -2.136859 -0.689026 -1.614273 -2.104864 0.719844 0.474195 49.363331 -1.461015 0.000000 0.000000 0.000000 -9.951265 -0.420359 -1.779854 -9.995679 0.823209 -2.179016 -9.812369 -0.628340 -4.518411 0.000000 0.000000 0.000000 -2.964389 -1.410674 1.017220 -2.827432 2.869290 -1.471381 -2.840359 2.787767 -1.486713 0.000000 0.000000 0.000000 
1475.964233 -69.259598 1143.112061 2.395624 0.233188 1.021741 -0.402408 1.071025 -0.222676 -0.364682 -0.161771 0.056111 -0.380283 0.184182 -0.017074 -0.032449 1.562791 -0.082091 0.000000 0.000000 0.000000 3.052469 -1.142854 3.013744 -0.126585 -0.742390 -4.367812 0.003915 1.239141 0.135151 0.000000 0.000000 0.000000 -1.099169 -2.138052 -0.684345 -1.607298 -2.102575 0.692148 0.478104 49.362108 -1.448752 0.000000 0.000000 0.000000 -9.955280 -0.410171 -1.785478 -9.998890 0.810413 -2.185204 -9.817378 -0.657125 -4.503944 0.000000 0.000000 0.000000 -2.953978 -1.402176 1.007056 -2.817499 2.857702 -1.475967 -2.830430 2.806627 -1.484334 0.000000 0.000000 0.000000 
1475.934326 -69.262245 1143.194946 2.394753 0.234608 1.036385 -0.393810 1.068819 -0.251937 -0.354596 -0.147296 0.061289 -0.369691 0.164121 -0.019089 -0.037991 1.544004 -0.058059 0.000000 0.000000 0.000000 3.017568 -1.130915 3.003579 -0.124777 -0.734788 -4.344231 0.003624 1.247472 0.120853 0.000000 0.000000 0.000000 -1.130207 -2.136867 -0.666493 -1.601215 -2.097309 0.653989 0.479974 49.350855 -1.436396 0.000000 0.000000 0.000000 -9.964338 -0.397100 -1.794222 -10.006608 0.785047 -2.191541 -9.827703 -0.709537 -4.478271 0.000000 0.000000 0.000000 -2.937646 -1.387938 0.989162 -2.802322 2.826097 -1.478286 -2.814190 2.842931 -1.480992 0.000000 0.000000 0.000000 
1476.067749 -69.267754 1143.456055 2.386784 0.223898 1.044347 -0.380575 1.052660 -0.272726 -0.340596 -0.138648 0.063792 -0.355368 0.153601 -0.019979 -0.042266 1.595122 -0.048391 0.000000 0.000000 0.000000 2.986428 -1.105603 3.014835 -0.126000 -0.712915 -4.346366 0.003603 1.248031 0.120346 0.000000 0.000000 0.000000 -1.177990 -2.126894 -0.668130 -1.599098 -2.080996 0.638898 0.481307 49.344620 -1.434534 0.000000 0.000000 0.000000 -9.974036 -0.370319 -1.797757 -10.014528 0.760797 -2.188859 -9.835091 -0.669918 -4.505297 0.000000 0.000000 0.000000 -2.917454 -1.372496 0.971044 -2.783022 2.821080 -1.471985 -2.791878 2.942940 -1.481365 0.000000 0.000000 0.000000 
1476.524658 -69.264328 1144.089966 2.361822 0.189868 1.035709 -0.362284 1.012222 -0.269253 -0.323030 -0.147423 0.063798 -0.338697 0.168672 -0.022555 -0.042515 1.783094 -0.072887 0.000000 0.000000 0.000000 2.980421 -1.057316 3.076123 -0.134043 -0.664037 -4.415603 0.004225 1.236240 0.152555 0.000000 0.000000 0.000000 -1.243892 -2.100087 -0.724089 -1.605746 -2.045096 0.684933 0.482355 49.358095 -1.455089 0.000000 0.000000 0.000000 -9.981762 -0.329212 -1.788442 -10.020718 0.756973 -2.168090 -9.833336 -0.422329 -4.650300 0.000000 0.000000 0.000000 -2.891027 -1.359287 0.956222 -2.756745 2.870207 -1.449770 -2.758305 3.187511 -1.491251 0.000000 0.000000 0.000000 
1477.241211 -69.257866 1145.035034 2.322887 0.138988 1.015020 -0.339158 0.949001 -0.248185 -0.301938 -0.167579 0.059845 -0.319065 0.201846 -0.024780 -0.039854 2.074508 -0.122787 0.000000 0.000000 0.000000 2.992819 -0.989727 3.177539 -0.147443 -0.592838 -4.537561 0.005332 1.215150 0.209833 0.000000 0.000000 0.000000 -1.326674 -2.059215 -0.824062 -1.619552 -1.992584 0.780170 0.483154 49.387131 -1.493684 0.000000 0.000000 0.000000 -9.989835 -0.278182 -1.768953 -10.027443 0.767751 -2.132604 -9.826132 -0.007786 -4.891288 0.000000 0.000000 0.000000 -2.857949 -1.346589 0.942330 -2.723459 2.954295 -1.413944 -2.713637 3.562343 -1.509318 0.000000 0.000000 0.000000 
